<?xml version="1.0" encoding="UTF-8" standalone="no"?>
<!-- Created with Inkscape (http://www.inkscape.org/) -->

<svg
   width="328.96701mm"
   height="69mm"
   viewBox="0 0 328.96701 69"
   version="1.1"
   id="svg1"
   xml:space="preserve"
   inkscape:version="1.3.2 (091e20e, 2023-11-25, custom)"
   sodipodi:docname="foodora logo.svg"
   xmlns:inkscape="http://www.inkscape.org/namespaces/inkscape"
   xmlns:sodipodi="http://sodipodi.sourceforge.net/DTD/sodipodi-0.dtd"
   xmlns="http://www.w3.org/2000/svg"
   xmlns:svg="http://www.w3.org/2000/svg"><sodipodi:namedview
     id="namedview1"
     pagecolor="#ffffff"
     bordercolor="#000000"
     borderopacity="0.25"
     inkscape:showpageshadow="2"
     inkscape:pageopacity="0.0"
     inkscape:pagecheckerboard="0"
     inkscape:deskcolor="#d1d1d1"
     inkscape:document-units="mm"
     inkscape:zoom="0.36480429"
     inkscape:cx="237.11344"
     inkscape:cy="667.48118"
     inkscape:window-width="1920"
     inkscape:window-height="1051"
     inkscape:window-x="2391"
     inkscape:window-y="652"
     inkscape:window-maximized="1"
     inkscape:current-layer="layer1" /><defs
     id="defs1" /><g
     inkscape:label="Lager 1"
     inkscape:groupmode="layer"
     id="layer1"><path
       style="fill:#ffffe7;fill-opacity:1;stroke-width:1.06653"
       d="m 56.17073,68.966003 c -0.173827,-0.0194 -0.702081,-0.0783 -1.173897,-0.13078 -4.952085,-0.55102 -9.531893,-2.34342 -13.298206,-5.20448 -1.280572,-0.97277 -3.290856,-3.00625 -4.287569,-4.33701 -2.700707,-3.60588 -4.279495,-7.63833 -4.959759,-12.66793 -0.230418,-1.70363 -0.230602,-6.45633 -3.18e-4,-8.17214 0.451211,-3.36188 1.228479,-5.99362 2.586933,-8.75908 1.956427,-3.98279 4.874191,-7.2316 8.60702,-9.58358 1.062898,-0.66971 3.076097,-1.67901 4.280015,-2.14573 6.212513,-2.40842 14.170082,-2.56276 20.642652,-0.40039 10.860155,3.6282 17.19409,13.37488 16.831535,25.90042 -0.135275,4.67349 -1.071817,8.57076 -2.948326,12.26898 -1.893565,3.73184 -4.585605,6.71598 -8.184866,9.07297 -3.104334,2.03287 -6.874848,3.37321 -11.232425,3.99286 -0.983121,0.13982 -6.009129,0.2613 -6.862789,0.16589 z m 4.271497,-14.16712 c 4.186699,-0.63105 7.335437,-3.65072 8.512004,-8.16306 0.766357,-2.93913 0.613291,-6.71862 -0.38033,-9.39117 -1.092276,-2.9379 -3.051164,-5.12764 -5.559427,-6.21461 -1.658313,-0.71864 -3.953699,-1.0181 -5.769137,-0.75264 -4.720574,0.69024 -8.082764,4.41182 -8.88898,9.83917 -0.179977,1.21158 -0.179738,3.72803 4.65e-4,4.90883 0.916344,6.00439 4.924182,9.82261 10.387454,9.89601 0.446984,0.006 1.211062,-0.0492 1.697951,-0.12253 z m 51.016543,14.08575 c -9.4773,-1.07746 -16.66846,-5.89421 -20.424007,-13.68035 -3.513965,-7.28527 -3.615563,-17.45095 -0.247731,-24.78731 1.29771,-2.82687 3.103356,-5.38776 5.213553,-7.39421 5.462745,-5.19417 13.453595,-7.64941 22.206145,-6.823 7.19087,0.67896 13.60338,3.94451 17.66759,8.99716 2.94911,3.66636 4.71212,7.96368 5.42015,13.21159 0.23183,1.71832 0.23221,6.65749 6.4e-4,8.30758 -0.47644,3.39492 -1.23153,5.93799 -2.58735,8.71395 -1.48386,3.03809 -3.7296,5.86955 -6.28415,7.92309 -1.7794,1.43043 -4.762,3.11078 -6.93211,3.90545 -1.89023,0.69217 -4.11512,1.23384 -6.33662,1.54267 -1.49224,0.20747 -6.15982,0.25803 -7.69611,0.0834 z m 4.89681,-14.0447 c 1.49326,-0.2123 3.23113,-0.86451 4.35123,-1.63299 0.68784,-0.47191 2.0508,-1.83933 2.53905,-2.54735 1.70838,-2.47737 2.54984,-5.91708 2.27857,-9.31431 -0.38649,-4.84009 -2.48684,-8.37669 -6.00835,-10.11691 -1.38564,-0.68473 -2.45869,-0.95146 -4.07463,-1.01283 -2.56984,-0.0976 -4.70288,0.5147 -6.52759,1.87376 -2.83664,2.11277 -4.42292,5.51783 -4.58449,9.84091 -0.28244,7.55723 4.08291,12.9403 10.53626,12.99264 0.47182,0.004 1.1423,-0.0335 1.48995,-0.0829 z m 51.51607,14.08735 c -8.03651,-0.82037 -14.61413,-4.50185 -18.71035,-10.4722 -2.5639,-3.73694 -4.01215,-7.85689 -4.54973,-12.94301 -0.18334,-1.73466 -0.13214,-6.04885 0.0907,-7.64536 0.49783,-3.5659 1.37781,-6.5261 2.80515,-9.43634 1.89804,-3.86996 4.56078,-6.97619 7.82541,-9.12879 8.05611,-5.31193 19.03124,-3.53255 24.16777,3.91828 0.59069,0.85684 1.36166,2.35694 1.70331,3.31422 l 0.25782,0.7224 0.0229,-12.98061 0.0229,-12.9805996 h 7.81064 7.81063 V 23.331013 c 0,23.96491 0.0152,23.18075 -0.50105,25.82842 -0.78943,4.04867 -2.49351,7.81611 -4.89894,10.83074 -3.4262,4.29392 -8.64477,7.33467 -14.55628,8.48166 -2.03565,0.39497 -2.95416,0.47521 -5.77919,0.50488 -1.51478,0.0159 -3.09954,-0.006 -3.52169,-0.0495 z m 4.72299,-14.1284 c 5.21601,-0.7862 8.59457,-5.16613 8.88173,-11.51418 0.24937,-5.51262 -2.04127,-10.17347 -5.93472,-12.07563 -1.573,-0.76849 -3.10996,-1.06869 -5.08533,-0.99328 -1.62106,0.0619 -2.69556,0.32768 -4.07462,1.00788 -3.49394,1.72334 -5.53832,5.20486 -5.92171,10.08454 -0.26321,3.35001 0.52577,6.8075 2.09949,9.20048 0.55741,0.84759 1.8994,2.19834 2.73931,2.75719 2.09554,1.39433 4.65206,1.9315 7.29585,1.533 z m 51.62412,14.16315 c -8.44832,-0.76151 -15.24915,-4.52338 -19.40839,-10.73569 -2.53585,-3.7876 -3.9222,-7.96085 -4.34864,-13.09049 -0.13179,-1.58528 -0.058,-5.10302 0.13927,-6.63704 0.20162,-1.56816 0.61502,-3.53214 1.03588,-4.92134 2.78336,-9.1875 10.15474,-15.49671 19.97786,-17.09918 1.94649,-0.31754 3.13394,-0.40795 5.35816,-0.40795 2.31667,0 3.47917,0.0937 5.54239,0.44675 9.5141,1.62799 16.62797,7.57781 19.56838,16.36637 1.52871,4.56912 1.89489,10.25116 0.9933,15.41289 -1.01492,5.81061 -3.97716,11.16008 -8.08635,14.60302 -3.87505,3.24676 -8.26245,5.12072 -13.81878,5.90234 -0.99822,0.14042 -5.91591,0.25382 -6.95308,0.16032 z m 4.33476,-14.15908 c 4.61214,-0.69529 7.82822,-4.11752 8.8302,-9.3962 0.11917,-0.62784 0.15321,-1.29537 0.14964,-2.93475 -0.004,-1.85041 -0.0307,-2.24341 -0.20828,-3.07019 -0.43075,-2.00531 -1.22341,-3.87969 -2.18199,-5.15969 -0.65477,-0.87431 -2.02614,-2.13532 -2.8727,-2.64151 -0.81989,-0.49024 -2.03669,-0.9772 -2.96995,-1.18856 -1.00919,-0.22856 -2.99924,-0.27188 -4.09239,-0.0891 -2.1524,0.35991 -3.88434,1.2466 -5.4048,2.76706 -1.57486,1.57485 -2.66277,3.73587 -3.18991,6.33638 -0.18103,0.89303 -0.20499,1.27216 -0.20105,3.18107 0.004,1.89835 0.0298,2.28481 0.20829,3.11534 0.555,2.58196 1.4835,4.47615 2.96734,6.05348 0.88232,0.93791 1.67014,1.52624 2.77968,2.07582 1.92704,0.95451 4.02373,1.27679 6.18592,0.95085 z m 68.54178,13.93294 c -1.07832,-0.1126 -2.83494,-0.48122 -3.86392,-0.81084 -5.51764,-1.76746 -9.22561,-5.94913 -10.39895,-11.72747 -0.57505,-2.83187 -0.54097,-6.41144 0.0868,-9.12028 1.29189,-5.57444 4.87513,-9.54716 10.17689,-11.28309 3.15153,-1.03188 7.06095,-1.26704 10.39494,-0.62529 4.32219,0.83197 7.63387,3.36121 9.50323,7.25794 l 0.43319,0.90299 0.004,-2.40369 c 0.004,-2.72588 -0.0874,-3.49316 -0.57052,-4.77957 -0.39418,-1.04943 -0.78484,-1.68404 -1.53114,-2.48728 -0.79144,-0.85182 -1.52081,-1.3961 -2.59017,-1.93287 -2.84816,-1.42962 -6.47695,-1.9728 -11.9619,-1.7905 -2.47286,0.0821 -5.6615,0.38611 -7.02365,0.66948 l -0.24832,0.0516 v -6.86388 c 0,-6.45944 0.01,-6.86656 0.15802,-6.90949 0.64253,-0.18553 3.70043,-0.52847 6.25326,-0.7013 2.07003,-0.14016 7.53722,-0.14162 9.25574,-0.002 6.63608,0.53726 11.6277,1.99518 15.45075,4.51275 5.05463,3.3286 7.77134,8.30045 8.24938,15.09716 0.057,0.81056 0.0925,7.1313 0.093,16.5926 l 9e-4,15.28324 h -7.76578 -7.7658 v -3.6705 -3.67051 l -0.48414,0.98409 c -2.49661,5.0747 -6.95335,7.56625 -13.44923,7.51883 -0.90384,-0.006 -1.98669,-0.0479 -2.40633,-0.0917 z m 11.37321,-12.17334 c 0.42215,-0.10911 1.19421,-0.4039 1.71569,-0.65511 0.79707,-0.38396 1.05723,-0.56632 1.63261,-1.14433 0.99582,-1.00036 1.43433,-2.01072 1.43652,-3.30987 0.004,-2.37145 -1.74924,-4.29385 -4.60422,-5.04849 -2.43667,-0.64407 -5.41236,-0.40668 -7.46851,0.5958 -0.97656,0.47612 -2.11378,1.54108 -2.49265,2.33425 -0.69017,1.44492 -0.68138,2.76996 0.028,4.21337 0.77299,1.57295 2.5359,2.69827 4.92156,3.14158 1.10959,0.20619 3.81679,0.13491 4.83104,-0.1272 z M 0.02947387,44.616623 c 0.03223,-25.35691 -0.008,-23.51032 0.573343,-26.34498 C 1.8979888,11.955933 5.4502988,6.7623734 10.604352,3.6491834 c 2.029697,-1.226 4.979722,-2.39765 7.369543,-2.92693 5.677166,-1.25735 12.812684,-0.84987 18.240569,1.04163 l 0.857849,0.29895 0.02313,6.98554 c 0.02196,6.6319696 0.01511,6.9822296 -0.13545,6.9202896 -2.167993,-0.89189 -4.653486,-1.52047 -7.156822,-1.80992 -1.595792,-0.18454 -4.299427,-0.13945 -5.549413,0.0925 -4.603007,0.85422 -7.308086,3.55811 -8.042271,8.03874 -0.07324,0.44698 -0.13333,0.96508 -0.13353,1.15132 l -3.63e-4,0.33862 h 6.862789 6.862788 v 6.86279 6.86279 h -7.043389 -7.043388 v 15.08008 15.08007 H 7.8582898 1.8187353e-4 Z M 256.9074,51.569723 c 1.2e-4,-17.50983 -0.0107,-17.10967 0.50908,-19.6628 0.49276,-2.42255 1.65826,-5.31279 2.8949,-7.17884 2.29144,-3.45769 5.66184,-6.00242 9.77969,-7.38387 4.30548,-1.44441 10.24543,-1.73121 13.96334,-0.67418 l 0.71039,0.20197 0.0231,6.8953 0.0231,6.89529 -0.21971,-0.0551 c -0.58002,-0.14557 -2.66322,-0.32591 -3.7648,-0.32591 -4.49859,0 -7.16886,1.89977 -8.05736,5.73243 -0.18697,0.80652 -0.18904,0.96178 -0.21665,16.23301 l -0.0278,15.41869 h -7.8087 -7.80869 z"
       id="path1" /></g>
</svg>
